<svg xmlns="http://www.w3.org/2000/svg" version="1.1" xmlns:xlink="http://www.w3.org/1999/xlink" xmlns:svgjs="http://svgjs.dev/svgjs" viewBox="0 0 800 800"><defs><linearGradient x1="50%" y1="0%" x2="50%" y2="100%" id="ccchaos-grad"><stop stop-color="#32ded4" stop-opacity="1" offset="0%"></stop><stop stop-color="hsl(331, 90%, 56%)" stop-opacity="1" offset="100%"></stop></linearGradient></defs><g stroke-width="2" stroke="url(#ccchaos-grad)" fill="none" stroke-linecap="round"><path d="M395.52 171.44C403.04 173.98 410.38 177.04 417.52 180.52 424.66 184.03 431.62 187.82 438.37 191.81 445.13 195.63 451.71 199.54 458.12 203.48 464.56 207.12 470.87 210.74 477.05 214.32 483.32 217.53 489.53 220.71 495.69 223.85 502.01 226.64 508.35 229.44 514.73 232.27 521.31 234.82 527.95 237.47 534.66 240.24 541.55 242.84 548.46 245.62 555.32 248.62 562.22 251.52 568.94 254.7 575.35 258.17 581.55 261.62 587.24 265.39 592.28 269.49 598.7 275.84 606.38 290.27 607.65 298.32 607.88 303.82 607.56 309.62 606.86 315.7 606.37 321.8 605.91 328.15 605.66 334.72 606.15 341.31 607.12 348.11 608.6 355.1 610.91 362.09 613.6 369.26 616.47 376.58 619.64 383.91 622.42 391.23 624.56 398.53 626.23 405.83 626.85 413.13 626.33 420.42 625 427.74 622.51 435.08 618.98 442.43 614.84 449.86 609.95 457.33 604.55 464.86 599.05 472.49 593.38 480.21 587.71 488.01 582.4 495.94 577.29 503.98 572.44 512.11 568.1 520.36 564.01 528.69 560.11 537.06 556.62 545.51 553.18 553.94 549.7 562.3 546.42 570.62 542.93 578.76 539.18 586.62 535.42 594.27 531.3 601.51 526.78 608.21 522.16 614.5 517.11 620.1 511.67 624.89 506.1 629.09 500.16 632.37 493.88 634.63 487.51 636.21 480.84 636.75 473.94 636.22 466.98 635.07 459.82 632.94 452.5 629.9 445.16 626.47 437.69 622.35 430.13 617.66 422.56 612.99 414.91 608.06 407.19 603.02 399.48 598.46 391.89 594.18 384.43 590.29 376.96 587.18 369.61 584.57 362.39 582.48 355.15 581.23 348.01 580.45 340.98 580.07 333.91 580.38 326.92 580.94 320.03 581.64 313.08 582.76 306.21 583.81 299.42 584.67 292.58 585.68 285.82 586.3 279.18 586.48 272.51 586.55 265.99 586.04 259.65 584.91 253.35 583.52 247.29 581.47 241.53 578.75 235.89 575.72 230.62 572.04 225.77 567.75 221.12 563.17 216.93 558.02 213.24 552.39 209.75 546.52 206.74 540.23 204.2 533.57 201.77 526.76 199.72 519.66 198 512.33 196.21 504.91 194.63 497.32 193.21 489.6 191.54 481.85 189.94 474.01 188.39 466.14 186.55 458.25 184.79 450.35 183.16 442.47 181.38 434.58 179.87 426.72 178.75 418.92 177.73 411.1 177.29 403.52 177.47 396.17 177.94 388.81 179.09 381.67 180.88 374.74 182.94 367.78 185.56 361.02 188.67 354.44 191.87 347.8 195.41 341.32 199.2 334.98 202.89 328.56 206.72 322.25 210.63 316.04 214.31 309.7 218.05 303.43 221.83 297.22 225.39 290.86 229.05 284.52 232.81 278.21 236.44 271.74 240.26 265.28 244.31 258.85 248.32 252.26 252.63 245.71 257.23 239.23 261.89 232.66 266.88 226.19 272.19 219.88 277.6 213.57 283.33 207.5 289.35 201.72 295.46 196.08 301.85 190.82 308.46 186.04 315.14 181.52 322.03 177.57 329.08 174.25 336.17 171.3 343.4 169.06 350.73 167.57 358.08 166.5 365.51 166.2 372.99 166.68 380.47 167.55 387.99 169.14 395.51 171.44" stroke-dasharray="0 0" transform="rotate(0, 400, 400)" opacity="0.05"></path><path d="M393.44 182.23C400.55 184.7 407.53 187.66 414.35 191.02 421.18 194.42 427.87 198.1 434.41 201.98 440.97 205.73 447.41 209.58 453.72 213.49 460.09 217.13 466.37 220.78 472.59 224.4 478.9 227.71 485.18 230.98 491.45 234.22 497.86 237.14 504.29 240.07 510.75 243.01 517.35 245.68 523.98 248.42 530.61 251.26 537.32 253.9 543.97 256.69 550.47 259.66 556.91 262.52 563.07 265.59 568.85 268.92 576.81 273.96 588.9 285.46 592.67 291.96 594.96 298.78 595.83 313.95 595.14 322.25 594.86 327.89 594.65 333.79 594.67 339.93 595.36 346.07 596.47 352.45 598.01 359.03 600.27 365.62 602.83 372.42 605.53 379.41 608.49 386.4 611.09 393.43 613.11 400.47 614.75 407.53 615.47 414.63 615.17 421.75 614.16 428.9 612.09 436.1 609.05 443.35 605.42 450.65 601.03 458.02 596.08 465.46 590.94 472.97 585.53 480.57 580.01 488.25 574.71 496.02 569.5 503.86 564.46 511.76 559.83 519.74 555.41 527.74 551.18 535.74 547.34 543.74 543.59 551.68 539.88 559.48 536.42 567.19 532.86 574.66 529.14 581.81 525.5 588.72 521.59 595.18 517.4 601.09 513.17 606.59 508.59 611.42 503.68 615.48 498.68 618.99 493.33 621.64 487.67 623.36 481.93 624.49 475.9 624.67 469.61 623.9 463.26 622.6 456.69 620.44 449.93 617.48 443.14 614.2 436.18 610.31 429.08 605.91 421.98 601.56 414.75 596.95 407.42 592.23 400.09 587.94 392.83 583.87 385.66 580.13 378.49 577.07 371.39 574.43 364.38 572.23 357.36 570.77 350.41 569.73 343.54 569.04 336.64 568.99 329.82 569.17 323.07 569.5 316.3 570.26 309.6 570.98 302.99 571.59 296.37 572.38 289.85 572.88 283.47 573.02 277.11 573.13 270.92 572.76 264.95 571.87 256.25 569.99 240.61 562.95 233.85 557.81 229.69 553.95 225.95 549.56 222.67 544.69 219.57 539.61 216.88 534.11 214.6 528.23 212.39 522.2 210.48 515.85 208.86 509.25 207.13 502.55 205.57 495.63 204.13 488.56 202.45 481.44 200.83 474.19 199.26 466.86 197.42 459.51 195.66 452.1 194.04 444.66 192.29 437.22 190.81 429.76 189.69 422.31 188.68 414.85 188.21 407.57 188.32 400.48 188.7 393.37 189.72 386.44 191.35 379.68 193.25 372.89 195.7 366.25 198.63 359.76 201.67 353.21 205.08 346.79 208.76 340.47 212.37 334.08 216.16 327.78 220.05 321.55 223.76 315.21 227.53 308.92 231.35 302.68 234.95 296.31 238.62 289.97 242.37 283.65 245.97 277.21 249.7 270.79 253.6 264.42 257.42 257.94 261.47 251.52 265.76 245.19 270.06 238.82 274.64 232.58 279.5 226.52 284.42 220.51 289.63 214.75 295.11 209.31 300.65 204.01 306.46 199.12 312.51 194.69 318.61 190.53 324.93 186.92 331.42 183.92 337.95 181.27 344.64 179.28 351.45 178 358.28 177.12 365.22 176.94 372.23 177.5 379.24 178.4 386.32 179.99 393.43 182.23" stroke-dasharray="0 0" transform="rotate(5.315789473684211, 400, 400)" opacity="0.10"></path><path d="M392.52 193.02C399.25 195.41 405.88 198.26 412.42 201.5 418.96 204.78 425.41 208.34 431.77 212.11 438.15 215.76 444.46 219.54 450.7 223.39 456.98 227.02 463.23 230.67 469.44 234.32 475.73 237.68 482.02 241.03 488.3 244.36 494.69 247.4 501.08 250.43 507.46 253.48 513.93 256.28 520.37 259.12 526.73 262.04 533.1 264.76 539.32 267.6 545.31 270.57 553.93 274.94 568.61 284.54 574.26 289.89 578.62 295.43 583.36 307.88 583.96 314.78 583.99 321.97 583.49 337.68 583.76 346.18 584.63 351.92 585.85 357.91 587.42 364.13 589.63 370.34 592.06 376.79 594.59 383.45 597.34 390.12 599.77 396.85 601.67 403.64 603.27 410.44 604.05 417.3 603.94 424.21 603.22 431.16 601.53 438.17 598.95 445.24 595.81 452.35 591.94 459.54 587.46 466.8 582.74 474.11 577.67 481.5 572.4 488.94 567.23 496.43 562.05 503.98 556.94 511.54 552.14 519.13 547.48 526.7 542.98 534.22 538.83 541.7 534.79 549.06 530.82 556.23 527.11 563.27 523.38 570.03 519.57 576.44 515.9 582.59 512.06 588.27 508.02 593.41 501.87 600.21 488.16 609.55 480.56 611.84 475.34 612.56 469.85 612.45 464.1 611.49 458.31 610.09 452.28 607.93 446.04 605.06 439.78 601.95 433.32 598.3 426.69 594.19 420.06 590.14 413.27 585.85 406.34 581.44 399.41 577.41 392.51 573.56 385.66 569.97 378.81 566.98 372 564.33 365.25 562.05 358.5 560.43 351.8 559.15 345.16 558.2 338.51 557.82 331.92 557.65 325.41 557.63 318.9 558.03 312.47 558.43 306.15 558.75 299.84 559.29 293.66 559.61 287.65 559.66 278.81 559.58 262.43 557.17 255.08 554.65 248.3 551.37 236.92 541.94 232.37 535.88 228.39 529.12 222.18 513.47 219.73 504.75 218.04 498.75 216.48 492.51 215.02 486.07 213.33 479.59 211.68 472.93 210.09 466.16 208.25 459.36 206.51 452.46 204.91 445.48 203.19 438.5 201.74 431.46 200.63 424.37 199.63 417.29 199.13 410.33 199.18 403.5 199.48 396.67 200.38 389.96 201.85 383.38 203.58 376.78 205.84 370.28 208.57 363.9 211.44 357.47 214.68 351.13 218.21 344.87 221.73 338.54 225.44 332.28 229.28 326.07 232.98 319.77 236.76 313.52 240.6 307.3 244.24 300.98 247.95 294.7 251.71 288.44 255.31 282.1 259.01 275.8 262.82 269.55 266.54 263.24 270.42 257.02 274.5 250.91 278.54 244.79 282.8 238.83 287.3 233.08 291.82 227.39 296.59 221.98 301.6 216.9 306.66 211.98 311.95 207.47 317.48 203.41 323.04 199.61 328.82 196.34 334.78 193.65 340.78 191.3 346.94 189.56 353.25 188.49 359.57 187.77 366.02 187.71 372.58 188.33 379.14 189.27 385.79 190.84 392.51 193.02" stroke-dasharray="0 0" transform="rotate(10.631578947368421, 400, 400)" opacity="0.15"></path><path d="M392.92 203.81C399.28 206.11 405.59 208.86 411.85 211.96 418.11 215.11 424.33 218.54 430.5 222.18 436.69 225.73 442.85 229.41 448.97 233.19 455.13 236.77 461.28 240.41 467.41 244.05 473.59 247.45 479.77 250.85 485.94 254.24 492.16 257.38 498.36 260.52 504.51 263.66 510.68 266.57 516.76 269.52 522.7 272.53 528.58 275.34 534.24 278.24 539.62 281.26 547.22 285.65 559.76 295.11 564.41 300.28 567.93 305.58 571.64 317.35 572.11 323.84 572.24 330.56 572.34 345.28 572.93 353.25 573.95 358.65 575.26 364.29 576.85 370.16 578.99 376.03 581.29 382.14 583.64 388.48 586.2 394.83 588.45 401.26 590.24 407.77 591.78 414.28 592.61 420.88 592.65 427.54 592.18 434.23 590.84 440.99 588.68 447.82 586.02 454.68 582.64 461.61 578.66 468.59 574.4 475.61 569.74 482.69 564.8 489.79 559.86 496.92 554.82 504.06 549.77 511.18 544.92 518.3 540.15 525.35 535.47 532.31 531.09 539.19 526.8 545.91 522.58 552.4 518.63 558.74 514.69 564.77 510.73 570.43 504.99 578.29 493.03 590.89 486.63 595.34 480.04 598.45 465.61 600.28 457.78 599 452.46 597.54 446.9 595.41 441.13 592.66 435.35 589.72 429.36 586.31 423.19 582.49 417.01 578.73 410.65 574.75 404.14 570.65 397.63 566.88 391.12 563.25 384.62 559.82 378.13 556.91 371.67 554.27 365.24 551.94 358.81 550.19 352.43 548.72 346.1 547.53 339.77 546.85 333.51 546.37 327.33 546.03 321.17 546.08 315.11 546.15 309.17 546.19 300.4 546.52 283.84 546.28 276.2 545.44 269 544.14 256.39 539.26 251.08 535.6 246.33 531.28 238.72 520.27 235.74 513.69 232.97 506.59 228.13 490.72 225.86 482.1 224.15 476.24 222.48 470.17 220.88 463.95 219.05 457.7 217.33 451.31 215.75 444.81 214.08 438.3 212.66 431.69 211.58 424.99 210.58 418.29 210.07 411.67 210.06 405.14 210.27 398.6 211.05 392.14 212.36 385.76 213.92 379.37 215.99 373.05 218.51 366.81 221.19 360.53 224.24 354.31 227.6 348.14 230.98 341.93 234.57 335.76 238.33 329.63 241.99 323.43 245.75 317.27 249.58 311.14 253.25 304.94 256.98 298.78 260.76 292.66 264.38 286.48 268.08 280.36 271.87 274.31 275.53 268.24 279.33 262.27 283.26 256.43 287.13 250.62 291.18 244.99 295.41 239.59 299.63 234.28 304.06 229.24 308.7 224.55 313.35 220.02 318.22 215.89 323.29 212.21 328.39 208.78 333.69 205.85 339.18 203.47 344.68 201.39 350.37 199.9 356.21 199.02 362.06 198.46 368.05 198.51 374.18 199.19 380.31 200.15 386.55 201.69 392.91 203.81" stroke-dasharray="0 0" transform="rotate(15.94736842105263, 400, 400)" opacity="0.20"></path><path d="M394.57 214.6C400.57 216.81 406.57 219.44 412.54 222.4 418.52 225.42 424.49 228.7 430.44 232.19 442.38 238.95 454.31 246.18 466.14 253.6 478.1 260.2 489.96 266.85 501.49 273.51 512.91 279.32 523.64 285.33 533.22 291.61 542.02 297.33 549.09 303.62 554.06 310.55 557.95 317.22 559.93 324.74 560.32 333.13 560.96 341.43 561.37 350.69 562.19 360.88 564.01 368.62 569.43 385.28 572.7 394.2 575.06 400.22 577.14 406.34 578.81 412.54 580.29 418.75 581.14 425.05 581.31 431.41 580.3 444.19 576.26 457.28 569.64 470.53 561.86 483.83 552.67 497.24 542.83 510.47 533.47 523.55 524.21 536.17 515.22 547.9 507.1 558.96 499.02 568.6 490.77 576.31 482.93 582.72 474.51 586.75 465.39 588.09 456.31 587.97 446.38 585.31 435.67 580.27 430.3 577.52 424.73 574.34 418.98 570.81 413.23 567.34 407.3 563.66 401.21 559.86 395.12 556.35 389.01 552.93 382.92 549.67 376.82 546.86 370.74 544.26 364.7 541.91 352.63 538.7 340.72 536.37 329.18 534.7 317.76 534.5 306.83 534.25 296.64 533.54 286.79 533.28 277.91 531.9 270.23 529.17 263.03 526.19 257.09 521.61 252.44 515.47 247.93 508.93 244.31 500.92 241.41 491.67 237.9 482.15 234.63 471.6 231.62 460.24 229.82 454.54 228.12 448.65 226.58 442.62 224.96 436.59 223.58 430.41 222.52 424.12 221.54 417.82 221.01 411.56 220.95 405.34 221.09 399.12 221.74 392.93 222.9 386.8 225.9 374.5 230.71 362.32 236.94 350.34 243.36 338.21 250.59 326.16 258.27 314.27 265.45 302.22 272.9 290.32 280.59 278.78 287.78 267.24 295.42 256.24 303.59 246.11 311.57 236.41 320.29 227.95 329.73 221.11 339.16 215.22 349.36 211.29 360.21 209.6 368.43 209.26 385.62 211.8 394.56 214.6" stroke-dasharray="0 0" transform="rotate(21.263157894736842, 400, 400)" opacity="0.25"></path><path d="M397.17 225.39C408.49 229.74 419.87 235.47 431.2 242.16 442.57 248.67 453.94 255.7 465.17 262.97 476.43 269.56 487.47 276.27 498.02 283.01 508.33 289 517.79 295.16 526.02 301.55 533.48 307.4 539.32 313.71 543.3 320.55 546.5 327.1 548.17 334.38 548.63 342.42 549.53 350.33 550.34 359.12 551.52 368.76 554.41 378.36 557.97 388.86 561.76 400.26 566.16 411.65 569.08 423.44 569.91 435.48 569.33 447.55 566.05 459.88 560.39 472.29 553.57 484.69 545.22 497.08 536.01 509.17 526.95 521.04 517.75 532.33 508.65 542.64 500.24 552.28 491.88 560.5 483.48 566.9 475.51 572.14 467.16 575.22 458.34 575.91 449.62 575.41 440.24 572.69 430.19 567.91 420.15 562.73 409.41 556.29 398.06 549.07 386.72 542.86 375.34 537.04 364.1 531.93 352.9 528.52 341.91 525.81 331.32 523.66 320.89 522.85 311 522.04 301.89 520.92 293.1 520.33 285.25 518.85 278.54 516.28 272.18 513.63 266.91 509.61 262.74 504.23 258.55 498.57 255.08 491.56 252.18 483.35 248.65 474.94 245.35 465.47 242.33 455.14 238.65 444.73 235.55 433.58 233.46 421.82 231.67 410.05 231.66 398.26 233.48 386.55 236.11 374.82 240.49 363.12 246.25 351.54 252.3 339.87 259.22 328.26 266.69 316.81 273.81 305.29 281.24 293.97 288.9 283.05 296.09 272.24 303.64 262.02 311.59 252.69 319.29 243.84 327.59 236.21 336.49 230.13 345.31 224.93 354.83 221.56 364.96 220.23 375.08 219.92 385.84 221.64 397.16 225.39" stroke-dasharray="0 0" transform="rotate(26.57894736842105, 400, 400)" opacity="0.30"></path><path d="M400.27 236.18C410.91 240.32 421.62 245.74 432.28 252.08 442.96 258.31 453.6 265.09 464.02 272.16 474.38 278.68 484.4 285.36 493.81 292.12 502.89 298.24 511.06 304.52 517.97 310.99 524.23 316.96 529.02 323.31 532.23 330.09 534.95 336.58 536.46 343.68 537.09 351.43 538.27 359.04 539.44 367.42 540.93 376.56 543.88 385.65 547.31 395.57 550.81 406.3 554.85 417.03 557.57 428.11 558.47 439.37 558.24 450.66 555.64 462.12 550.88 473.57 545.02 484.97 537.59 496.24 529.16 507.11 520.63 517.71 511.73 527.64 502.75 536.56 494.26 544.83 485.77 551.74 477.27 556.93 469.17 561.14 460.84 563.4 452.21 563.56 443.73 562.78 434.75 560.06 425.27 555.56 415.81 550.8 405.78 544.91 395.26 538.28 384.74 532.52 374.24 527.01 363.92 522.02 353.65 518.46 343.65 515.45 334.09 512.9 324.69 511.54 315.87 510.22 307.83 508.68 300.06 507.71 293.17 506.05 287.3 503.52 281.66 501.03 276.94 497.4 273.12 492.59 269.17 487.61 265.78 481.43 262.86 474.12 259.32 466.67 256.01 458.18 252.98 448.81 249.41 439.37 246.42 429.14 244.41 418.21 242.65 407.29 242.53 396.22 244.08 385.15 246.37 374.07 250.29 362.95 255.55 351.89 261.16 340.8 267.71 329.76 274.86 318.9 281.82 308.03 289.14 297.41 296.71 287.23 303.89 277.23 311.38 267.86 319.18 259.39 326.7 251.41 334.7 244.61 343.19 239.28 351.56 234.75 360.53 231.9 370.05 230.92 379.54 230.83 389.63 232.58 400.27 236.18" stroke-dasharray="0 0" transform="rotate(31.89473684210526, 400, 400)" opacity="0.35"></path><path d="M403.32 246.97C413.27 250.88 423.24 255.99 433.12 261.96 443 267.88 452.75 274.36 462.2 281.17 471.54 287.56 480.43 294.15 488.61 300.86 496.47 307.03 503.39 313.37 509.13 319.88 514.35 325.94 518.31 332.31 520.97 339.04 523.37 345.49 524.87 352.44 525.72 359.94 527.18 367.29 528.67 375.3 530.41 383.96 533.37 392.58 536.64 401.92 539.87 411.96 543.54 422.01 546.05 432.32 547 442.75 547.05 453.18 545.04 463.7 541.11 474.1 536.18 484.43 529.71 494.52 522.16 504.12 514.34 513.44 505.97 522.04 497.35 529.62 489.01 536.61 480.57 542.31 472.12 546.43 463.99 549.73 455.71 551.32 447.25 551.07 438.96 550.08 430.32 547.43 421.33 543.25 412.38 538.9 403.02 533.54 393.29 527.49 383.56 522.18 373.94 516.99 364.58 512.16 355.25 508.53 346.25 505.3 337.74 502.42 329.36 500.6 321.57 498.8 314.53 496.86 304.66 494.55 289.26 486.85 283.53 480.77 279.74 476.3 276.39 470.78 273.43 464.24 269.9 457.59 266.59 449.98 263.59 441.49 260.15 432.95 257.29 423.6 255.35 413.53 253.65 403.46 253.43 393.17 254.73 382.8 256.68 372.44 260.14 361.99 264.87 351.59 270 341.19 276.08 330.84 282.83 320.69 289.51 310.59 296.62 300.77 304.02 291.43 311.12 282.31 318.51 273.84 326.15 266.26 333.55 259.17 341.32 253.19 349.47 248.58 357.49 244.69 366 242.33 374.98 241.67 383.92 241.77 393.38 243.53 403.32 246.97" stroke-dasharray="0 0" transform="rotate(37.21052631578947, 400, 400)" opacity="0.40"></path><path d="M405.79 257.76C415.02 261.43 424.2 266.2 433.21 271.79 442.21 277.36 450.98 283.5 459.36 290.01 467.63 296.19 475.36 302.62 482.36 309.2 489.06 315.34 494.87 321.67 499.62 328.14 504.01 334.24 507.34 340.6 509.64 347.25 511.89 353.65 513.45 360.46 514.55 367.7 516.28 374.81 518.04 382.47 519.95 390.66 522.88 398.82 525.97 407.57 528.93 416.92 532.25 426.26 534.55 435.77 535.5 445.31 535.76 454.83 534.26 464.34 531.07 473.65 527.01 482.87 521.5 491.76 514.89 500.1 507.92 508.17 500.26 515.49 492.21 521.82 484.26 527.64 476.12 532.25 467.9 535.44 459.91 537.98 451.79 539.01 443.57 538.46 435.49 537.35 427.19 534.81 418.68 530.96 410.21 527.03 401.47 522.19 392.5 516.7 383.54 511.84 374.78 506.98 366.34 502.35 357.93 498.72 349.89 495.34 342.37 492.23 334.94 490.01 328.08 487.82 321.92 485.52 313.19 482.68 299.3 474.74 293.89 469.01 290.2 464.91 286.87 459.89 283.87 453.99 280.36 448.02 277.09 441.16 274.15 433.48 270.86 425.77 268.14 417.26 266.29 408.04 264.65 398.82 264.35 389.34 265.41 379.75 267.04 370.17 270.05 360.49 274.25 350.85 278.85 341.24 284.4 331.69 290.65 322.36 296.94 313.12 303.72 304.19 310.83 295.76 317.75 287.57 324.95 280.02 332.39 273.35 339.63 267.13 347.17 261.96 355 258.04 362.72 254.76 370.82 252.86 379.28 252.48 387.71 252.74 396.56 254.5 405.79 257.76" stroke-dasharray="0 0" transform="rotate(42.526315789473685, 400, 400)" opacity="0.45"></path><path d="M407.23 268.55C415.72 271.97 424.06 276.39 432.16 281.58 440.23 286.78 448 292.54 455.31 298.68 462.51 304.59 469.15 310.78 475.06 317.15 480.75 323.18 485.63 329.4 489.6 335.77 493.35 341.83 496.26 348.12 498.37 354.63 500.56 360.93 502.26 367.57 503.62 374.54 505.57 381.41 507.52 388.7 509.56 396.41 512.41 404.09 515.3 412.25 517.98 420.87 520.97 429.48 523.04 438.15 523.97 446.76 524.39 455.35 523.3 463.83 520.77 472.03 517.51 480.13 512.92 487.84 507.27 494.97 501.21 501.85 494.4 507.98 487.09 513.17 479.76 517.93 472.13 521.6 464.34 524.01 456.69 525.91 448.89 526.51 441.03 525.75 433.27 524.59 425.37 522.21 417.36 518.71 409.39 515.18 401.26 510.86 393.04 505.91 384.81 501.48 376.87 496.99 369.3 492.6 361.74 489.01 354.6 485.58 347.96 482.31 341.37 479.79 335.32 477.27 329.88 474.67 322.09 471.35 309.33 463.05 304.12 457.53 300.51 453.68 297.19 449.06 294.17 443.67 290.72 438.26 287.51 432.07 284.67 425.12 281.54 418.15 278.98 410.45 277.24 402.07 275.67 393.69 275.3 385.05 276.14 376.3 277.47 367.56 280.03 358.72 283.7 349.93 287.75 341.18 292.72 332.52 298.4 324.09 304.19 315.79 310.52 307.8 317.21 300.32 323.82 293.09 330.73 286.49 337.86 280.71 344.86 275.34 352.12 270.94 359.6 267.69 366.98 264.97 374.67 263.48 382.61 263.35 390.52 263.75 398.75 265.48 407.23 268.55" stroke-dasharray="0 0" transform="rotate(47.84210526315789, 400, 400)" opacity="0.50"></path><path d="M407.4 279.34C415.12 282.5 422.61 286.56 429.79 291.32 436.94 296.12 443.73 301.47 450.04 307.2 456.25 312.77 461.91 318.64 466.91 324.71 471.75 330.54 475.9 336.57 479.29 342.73 482.59 348.66 485.24 354.8 487.28 361.11 489.49 367.25 491.34 373.66 492.92 380.32 495.04 386.89 497.13 393.79 499.22 401 501.96 408.18 504.63 415.72 507.04 423.58 509.7 431.44 511.55 439.26 512.43 446.93 512.94 454.58 512.2 462.02 510.22 469.14 507.67 476.15 503.94 482.73 499.21 488.72 494.1 494.49 488.21 499.54 481.77 503.72 475.22 507.57 468.28 510.43 461.13 512.2 454.01 513.58 446.73 513.85 439.37 512.98 432.07 511.83 424.67 509.65 417.22 506.5 409.8 503.38 402.3 499.54 394.8 495.12 387.29 491.13 380.11 487 373.33 482.88 366.56 479.41 360.2 475.99 354.32 472.65 345.75 468.55 331.14 460.62 325.05 456.31 319.21 451.95 308.96 440.72 304.31 433.61 300.95 428.66 297.85 423.03 295.13 416.76 292.2 410.47 289.82 403.53 288.18 395.98 286.7 388.43 286.28 380.65 286.92 372.76 287.96 364.9 290.11 356.96 293.25 349.08 296.73 341.26 301.09 333.54 306.15 326.08 311.36 318.74 317.12 311.74 323.29 305.23 329.44 298.96 335.92 293.28 342.63 288.38 349.26 283.83 356.13 280.16 363.18 277.51 370.16 275.31 377.37 274.2 384.75 274.28 392.11 274.79 399.68 276.47 407.4 279.34" stroke-dasharray="0 0" transform="rotate(53.1578947368421, 400, 400)" opacity="0.55"></path><path d="M406.26 290.13C413.19 293.02 419.84 296.71 426.13 301.03 432.41 305.41 438.29 310.3 443.7 315.57 449.05 320.74 453.89 326.23 458.14 331.92 462.32 337.45 465.92 343.18 468.91 349.05 471.92 354.75 474.42 360.63 476.47 366.66 478.72 372.55 480.71 378.66 482.48 384.94 484.7 391.15 486.85 397.6 488.93 404.27 491.51 410.91 493.96 417.8 496.1 424.89 498.44 431.98 500.08 438.93 500.88 445.66 501.44 452.37 500.96 458.82 499.44 464.89 497.5 470.87 494.53 476.4 490.68 481.35 486.48 486.12 481.53 490.22 476.03 493.53 470.36 496.59 464.26 498.79 457.89 500.05 451.49 501.04 444.88 501.08 438.17 500.17 431.49 499.07 424.7 497.11 417.89 494.34 411.1 491.6 404.27 488.24 397.47 484.33 390.68 480.77 384.22 477.02 378.16 473.21 372.09 469.9 366.41 466.57 361.16 463.25 353.47 458.97 340.14 450.52 334.43 446.03 328.85 441.55 318.84 430.68 314.29 424.07 311.06 419.51 308.12 414.39 305.55 408.74 302.84 403.07 300.64 396.86 299.12 390.13 297.74 383.39 297.28 376.47 297.75 369.48 298.54 362.52 300.29 355.51 302.92 348.58 305.86 341.71 309.59 334.97 313.98 328.5 318.55 322.14 323.66 316.13 329.19 310.58 334.77 305.25 340.68 300.47 346.84 296.4 352.97 292.62 359.33 289.63 365.83 287.54 372.31 285.81 378.96 285.03 385.72 285.27 392.46 285.87 399.34 287.48 406.26 290.13" stroke-dasharray="0 0" transform="rotate(58.473684210526315, 400, 400)" opacity="0.60"></path><path d="M404.02 300.91C416.28 306.29 427.3 314.27 436.63 323.81 445.84 333.17 453.27 343.69 458.71 354.75 464.41 365.34 468.85 376.65 472.28 388.36 477.14 399.87 481.65 412.11 485.16 424.71 489.28 437.31 490.47 449.06 488.47 459.32 485.24 469.31 478.66 477.35 469.69 482.7 460.06 487.34 448.85 488.98 436.98 487.34 425.09 485.29 412.76 480.56 400.6 473.54 388.43 467.58 377.51 460.88 368.09 454.08 358.56 448.77 350.31 442.95 343.46 436.52 336.05 430.86 329.52 423.83 324.09 415.32 317.85 406.95 312.87 396.74 310.07 384.86 307.68 372.99 308.69 360.64 312.74 348.66 317.8 336.9 325.56 325.85 335.09 316.46 344.95 307.76 356.08 301.25 367.79 297.77 379.5 295.41 391.76 296.34 404.02 300.91" stroke-dasharray="0 0" transform="rotate(63.78947368421052, 400, 400)" opacity="0.65"></path><path d="M401.07 311.7C411.72 316.47 421.23 323.5 429.25 331.94 437.25 340.33 443.83 349.84 448.89 359.87 454.29 369.63 458.74 380.01 462.33 390.62 466.99 401.11 471.14 412.06 474.21 423.06 477.74 434.06 478.83 444.04 477.32 452.5 475 460.77 469.89 467.21 462.66 471.32 454.86 474.95 445.48 476.09 435.33 474.53 425.09 472.77 414.33 468.76 403.61 462.76 392.9 457.54 383.2 451.48 374.73 445.14 366.13 439.9 358.52 434.11 352.03 427.81 345.07 422.14 338.88 415.4 333.73 407.58 328.02 399.9 323.53 390.82 321.01 380.5 318.82 370.17 319.49 359.64 322.73 349.56 326.75 339.67 333.14 330.55 341.16 322.94 349.55 315.89 359.18 310.76 369.4 308.21 379.67 306.51 390.41 307.57 401.07 311.7" stroke-dasharray="0 0" transform="rotate(69.10526315789474, 400, 400)" opacity="0.70"></path><path d="M397.92 322.49C407 326.62 415.11 332.68 422.03 339.98 428.99 347.29 434.87 355.65 439.61 364.49 444.7 373.2 449.04 382.43 452.6 391.8 456.92 401.1 460.65 410.66 463.27 420.05 466.23 429.43 467.17 437.73 466.04 444.59 464.42 451.31 460.54 456.4 454.88 459.52 448.78 462.35 441.23 463.14 432.83 461.76 424.33 460.31 415.22 457 405.99 451.97 396.76 447.5 388.26 442.16 380.69 436.41 373.01 431.44 366.07 425.89 360.03 419.91 353.64 414.41 347.93 408.09 343.2 401.01 338.12 394.06 334.17 386.09 331.95 377.29 329.98 368.48 330.38 359.7 332.89 351.46 335.96 343.36 341.04 336.03 347.57 330.07 354.42 324.52 362.43 320.62 371.04 318.86 379.72 317.71 388.85 318.83 397.92 322.49" stroke-dasharray="0 0" transform="rotate(74.42105263157895, 400, 400)" opacity="0.75"></path><path d="M395.15 333.28C402.66 336.76 409.48 341.82 415.41 347.93 421.39 354.09 426.62 361.17 431 368.69 435.66 376.16 439.73 384.08 443.09 392.05 446.93 400 450.15 408.06 452.33 415.84 455.12 426.97 452.12 443.09 446.38 447.41 441.79 449.62 435.92 450.19 429.24 449.05 422.46 447.92 415.03 445.28 407.31 441.18 399.6 437.46 392.33 432.89 385.73 427.87 379.04 423.34 372.88 418.26 367.43 412.81 361.77 407.68 356.7 401.94 352.52 395.71 348.15 389.56 344.79 382.75 342.9 375.43 341.18 368.12 341.37 361.01 343.23 354.49 345.48 348.06 349.35 342.39 354.45 337.9 359.79 333.69 366.17 330.85 373.12 329.73 380.15 329.03 387.63 330.14 395.15 333.28" stroke-dasharray="0 0" transform="rotate(79.73684210526316, 400, 400)" opacity="0.80"></path><path d="M393.22 344.07C405.2 349.86 415.52 360.41 423.11 372.57 431.45 384.72 438.15 398.34 441.38 410.69 445.17 423.03 443.44 431.59 437.24 435.16 430.43 438.5 419.69 436.99 407.34 430.39 394.99 424.77 383.43 416.11 374.24 406.47 364.6 397.63 356.97 386.73 353.84 375.04 351.17 363.34 354.49 353.04 361.89 346.44 369.95 340.5 381.25 339.15 393.22 344.07" stroke-dasharray="0 0" transform="rotate(85.05263157894737, 400, 400)" opacity="0.85"></path><path d="M392.5 354.86C401.46 359.22 409.63 367.11 415.93 376.24 422.63 385.43 427.98 395.72 430.44 404.9 432.6 417.19 419.13 424.9 406.08 419.6 396.84 415.33 387.83 408.51 380.53 400.83 373.06 393.57 367.18 384.91 364.78 376.12 363.73 363.69 379.5 351.32 392.5 354.86" stroke-dasharray="0 0" transform="rotate(90.36842105263158, 400, 400)" opacity="0.90"></path><path d="M393.09 365.65C405.06 371.64 416.41 386.68 419.5 398.82 423.12 410.95 415.99 415.21 403.74 408.81 391.48 403.36 379.02 390.39 375.73 378.63 372.92 366.86 381.11 360.55 393.09 365.65" stroke-dasharray="0 0" transform="rotate(95.68421052631578, 400, 400)" opacity="0.95"></path></g></svg>