<svg xmlns="http://www.w3.org/2000/svg" version="1.1" xmlns:xlink="http://www.w3.org/1999/xlink" xmlns:svgjs="http://svgjs.dev/svgjs" viewBox="0 0 800 800"><defs><linearGradient x1="50%" y1="0%" x2="50%" y2="100%" id="ccchaos-grad"><stop stop-color="hsl(206, 75%, 49%)" stop-opacity="1" offset="0%"></stop><stop stop-color="hsl(331, 90%, 56%)" stop-opacity="1" offset="100%"></stop></linearGradient></defs><g stroke-width="2" stroke="url(#ccchaos-grad)" fill="none" stroke-linecap="round"><path d="M394.04 192.03C401.54 189.15 408.87 186.25 416.04 183.47 423.2 180.58 430.2 178.15 437.02 176.32 443.87 174.82 450.57 174.18 457.14 174.45 463.76 175.34 470.29 177.22 476.74 180.07 483.31 183.56 489.86 187.94 496.41 193.1 503.13 198.75 509.9 205.01 516.72 211.75 523.72 218.72 530.78 225.98 537.84 233.43 545.01 240.84 552.1 248.31 559.02 255.75 565.83 262.99 572.29 270.14 578.26 277.18 583.85 283.94 588.75 290.6 592.85 297.15 596.38 303.43 599.03 309.66 600.78 315.86 602.07 321.86 602.64 327.89 602.62 333.99 602.59 339.95 602.36 346.04 602.15 352.3 602.53 358.47 603.29 364.86 604.57 371.48 606.73 378.06 609.43 384.92 612.54 392.07 616.21 399.19 619.86 406.64 623.18 414.39 626.21 422.15 628.25 430.05 629.13 438.07 629.11 446.09 627.78 454.22 625.21 462.42 621.86 470.59 617.58 478.81 612.62 487 607.5 495.13 602.16 503.17 596.83 511.05 591.93 518.78 587.32 526.24 583.07 533.34 579.47 540.17 576.22 546.52 573.24 552.28 565.85 565.4 552.91 575.23 546.94 575.14 540.07 574.13 523.44 570.53 513.92 569.02 507.29 568.86 500.37 569.28 493.22 570.45 486 572.82 478.61 576.15 471.12 580.47 463.59 586.03 455.99 592.46 448.36 599.6 440.72 607.46 433.05 615.54 425.39 623.5 417.73 631.24 410.08 638.17 402.44 643.89 394.81 648.41 387.37 651.11 380.13 651.87 372.89 651.09 365.83 648.4 358.97 643.99 352.09 638.32 345.38 631.35 338.86 623.38 332.28 614.9 325.86 605.97 319.58 596.91 313.22 588.1 306.97 579.6 300.83 571.59 294.58 564.34 288.4 557.78 282.3 551.94 276.07 547.01 269.89 542.74 263.8 539.05 257.6 536.13 251.51 533.59 245.57 531.29 236.74 528.57 220.59 523 213.58 519.57 207.41 515.7 198.12 505.29 194.99 498.67 192.54 491.35 189.25 474.18 187.98 464.5 186.89 457.86 185.82 450.88 184.79 443.59 183.45 436.29 182.2 428.71 181.13 420.88 179.95 413.05 179.17 405.16 178.88 397.23 178.77 389.3 179.3 381.32 180.48 373.31 181.98 365.28 184.14 357.19 186.9 349.07 189.9 340.91 193.38 332.69 197.24 324.43 201.13 316.14 205.26 307.82 209.55 299.48 213.67 291.15 217.85 282.85 222.08 274.63 226.06 266.5 230.08 258.52 234.16 250.79 238.03 243.26 242.01 236.08 246.14 229.35 250.17 222.97 254.43 217.15 258.93 211.99 263.44 207.3 268.24 203.34 273.35 200.18 278.52 197.51 284.01 195.63 289.8 194.52 295.68 193.78 301.84 193.7 308.25 194.19 314.73 194.75 321.45 195.66 328.34 196.8 335.29 197.62 342.39 198.4 349.62 199.02 356.87 198.98 364.22 198.6 371.64 197.83 379.06 196.27 386.54 194.31 394.03 192.03" stroke-dasharray="108 8" transform="rotate(0, 400, 400)" opacity="0.31"></path><path d="M392.67 203.33C399.77 200.54 406.76 197.73 413.63 195.04 420.51 192.21 427.28 189.79 433.94 187.91 440.62 186.29 447.22 185.44 453.74 185.41 460.32 185.91 466.86 187.33 473.37 189.64 479.98 192.55 486.6 196.32 493.23 200.85 499.98 205.87 506.76 211.53 513.56 217.71 520.45 224.17 527.33 231 534.13 238.08 540.92 245.23 547.54 252.51 553.88 259.84 560.02 267.07 565.73 274.27 570.89 281.4 575.66 288.35 579.74 295.21 583.06 301.99 585.89 308.55 587.95 315.05 589.26 321.5 590.25 327.77 590.67 334.04 590.67 340.34 590.77 346.5 590.78 352.74 590.88 359.08 591.55 365.34 592.6 371.75 594.09 378.33 596.37 384.86 599.08 391.61 602.11 398.57 605.6 405.52 609.03 412.71 612.13 420.14 614.97 427.57 616.92 435.08 617.83 442.63 617.96 450.18 616.89 457.76 614.7 465.33 611.77 472.87 607.94 480.36 603.42 487.75 598.65 495.05 593.57 502.19 588.39 509.08 583.48 515.8 578.74 522.2 574.26 528.18 568.5 536.5 559.05 549.77 554.95 554.44 546.83 559.21 531.28 559.39 524.44 558.02 516.88 557.16 499.6 557.88 490.08 560.35 483.55 563.33 476.81 567.14 469.91 571.81 462.96 577.52 455.89 583.95 448.74 590.91 441.57 598.45 434.34 606.11 427.08 613.57 419.82 620.8 412.53 627.25 405.23 632.59 397.93 636.87 390.8 639.49 383.84 640.39 376.86 639.9 370.04 637.69 363.39 633.89 356.71 628.93 350.17 622.72 343.76 615.51 337.32 607.74 330.98 599.44 324.76 590.87 318.46 582.39 312.25 574.05 306.12 566.02 299.9 558.56 293.75 551.63 287.67 545.27 281.5 539.68 275.41 534.68 269.42 530.22 263.39 526.47 257.5 523.13 251.8 520.09 243.45 516.36 228.49 509.5 222.15 505.83 216.64 502 208.44 492.38 205.7 486.43 203.49 479.93 200.36 464.57 199.07 455.79 197.96 449.77 196.88 443.38 195.83 436.64 194.49 429.89 193.25 422.81 192.18 415.43 191.01 408.05 190.22 400.55 189.88 392.96 189.7 385.37 190.11 377.68 191.13 369.93 192.46 362.17 194.4 354.34 196.93 346.45 199.71 338.55 202.97 330.6 206.64 322.62 210.37 314.66 214.38 306.69 218.58 298.75 222.67 290.87 226.87 283.07 231.12 275.41 235.16 267.89 239.24 260.59 243.36 253.58 247.27 246.82 251.26 240.46 255.35 234.57 259.3 229.04 263.41 224.09 267.71 219.77 274.2 214.29 288.45 207.5 296.25 206.14 301.59 205.73 307.2 205.87 313.06 206.48 318.96 207.08 325.1 207.95 331.43 208.97 337.81 209.65 344.36 210.25 351.06 210.69 357.78 210.49 364.62 209.98 371.57 209.11 378.52 207.51 385.56 205.57 392.66 203.33" stroke-dasharray="41 4" transform="rotate(5.315789473684211, 400, 400)" opacity="0.45"></path><path d="M392.69 214.62C399.41 211.93 406.08 209.22 412.69 206.62 419.3 203.88 425.85 201.49 432.35 199.57 438.87 197.87 445.36 196.84 451.81 196.54 458.31 196.7 464.8 197.68 471.28 199.49 477.83 201.84 484.39 205 490.95 208.9 497.57 213.27 504.19 218.29 510.77 223.85 517.37 229.73 523.87 236.03 530.21 242.64 536.46 249.39 542.45 256.34 548.09 263.41 553.48 270.46 558.4 277.56 562.76 284.65 566.73 291.62 570.06 298.55 572.71 305.43 574.96 312.15 576.56 318.82 577.56 325.43 578.36 331.9 578.75 338.34 578.84 344.78 579.12 351.11 579.39 357.47 579.78 363.87 580.73 370.21 582.02 376.63 583.7 383.16 586.05 389.65 588.75 396.27 591.67 403.04 594.98 409.8 598.19 416.72 601.08 423.8 603.73 430.88 605.59 437.95 606.52 444.99 606.77 452.02 605.95 459.01 604.09 465.91 601.58 472.76 598.19 479.5 594.11 486.04 589.74 492.51 584.98 498.73 580.02 504.64 575.21 510.41 570.45 515.79 565.85 520.73 559.69 527.54 549.2 538 544.64 541.49 536.25 544.89 521.8 545.08 515.76 544.41 509.17 544.48 493.98 547.33 485.51 550.77 479.68 554.25 473.61 558.45 467.33 563.37 461 569.15 454.51 575.5 447.89 582.24 441.25 589.43 434.5 596.64 427.68 603.61 420.85 610.33 413.96 616.32 407.02 621.29 400.08 625.33 393.26 627.87 386.56 628.87 379.86 628.65 373.27 626.87 366.81 623.64 360.32 619.36 353.94 613.88 347.66 607.43 341.34 600.39 335.1 592.76 328.95 584.76 322.75 576.72 316.61 568.68 310.54 560.78 304.42 553.28 298.36 546.15 292.39 539.46 286.38 533.39 280.47 527.81 274.7 522.7 268.94 518.23 263.35 514.15 257.99 510.4 250.24 505.62 236.62 497.15 230.98 493 226.1 488.91 218.92 479.44 216.51 473.85 214.49 467.85 211.47 453.81 210.15 445.78 209.02 440.27 207.91 434.38 206.85 428.14 205.52 421.89 204.29 415.3 203.23 408.38 202.07 401.46 201.27 394.38 200.89 387.19 200.65 380 200.95 372.7 201.82 365.3 202.97 357.92 204.7 350.46 206.99 342.94 209.53 335.44 212.56 327.91 216 320.37 219.54 312.88 223.38 305.42 227.46 298.04 231.47 290.75 235.62 283.59 239.86 276.63 243.93 269.84 248.06 263.31 252.22 257.12 256.19 251.19 260.22 245.68 264.31 240.66 270.27 233.92 282.72 223.96 289.33 220.86 296.11 218.89 310.83 218.07 318.79 218.88 324.19 219.47 329.82 220.25 335.64 221.13 341.49 221.64 347.53 222.06 353.74 222.31 359.96 221.97 366.33 221.33 372.82 220.37 379.33 218.74 385.95 216.81 392.68 214.63" stroke-dasharray="85 99" transform="rotate(10.631578947368421, 400, 400)" opacity="0.59"></path><path d="M394.1 225.92C400.47 223.33 406.83 220.73 413.16 218.23 419.5 215.58 425.83 213.24 432.13 211.32 438.46 209.55 444.77 208.37 451.08 207.85 457.41 207.7 463.75 208.3 470.07 209.64 476.44 211.47 482.79 214.04 489.11 217.31 495.44 221.03 501.72 225.38 507.89 230.28 514.02 235.52 519.99 241.21 525.73 247.26 531.32 253.5 536.6 260 541.48 266.67 546.1 273.41 550.24 280.24 553.84 287.12 557.1 293.97 559.79 300.82 561.88 307.64 563.68 314.37 564.96 321.07 565.76 327.72 566.49 334.27 566.92 340.8 567.16 347.29 567.65 353.7 568.18 360.1 568.86 366.52 570.06 372.87 571.56 379.26 573.37 385.7 575.77 392.11 578.42 398.58 581.23 405.13 584.35 411.66 587.35 418.29 590.03 424.98 592.5 431.68 594.26 438.29 595.19 444.8 595.54 451.3 594.94 457.67 593.4 463.88 591.26 470.05 588.31 476.03 584.68 481.76 580.72 487.41 576.33 492.77 571.66 497.79 567.04 502.67 562.37 507.16 557.75 511.2 551.37 516.75 540.02 525.01 535 527.67 526.06 530.39 511.97 531.38 506.47 531.54 500.59 532.57 487.13 537.4 479.59 541.68 474.4 545.56 468.95 550.05 463.28 555.12 457.56 560.89 451.65 567.09 445.57 573.57 439.47 580.38 433.23 587.13 426.87 593.61 420.5 599.84 414.03 605.38 407.47 610 400.91 613.78 394.42 616.24 388.01 617.32 381.6 617.34 375.26 615.95 369.01 613.25 362.74 609.59 356.54 604.82 350.41 599.11 344.26 592.81 338.18 585.88 332.16 578.52 326.11 571.02 320.12 563.38 314.21 555.76 308.27 548.38 302.41 541.23 296.66 534.39 290.91 528.01 285.29 522.02 279.83 516.43 274.43 511.36 269.24 506.65 264.31 502.27 257.24 496.5 245.06 486.31 240.09 481.52 235.83 476.96 229.55 467.13 227.4 461.63 225.53 455.88 222.56 442.69 221.2 435.22 220.05 430.11 218.93 424.65 217.86 418.86 216.54 413.05 215.33 406.92 214.28 400.46 213.15 394 212.34 387.38 211.92 380.63 211.63 373.9 211.83 367.05 212.55 360.11 213.52 353.2 215.05 346.21 217.1 339.19 219.39 332.21 222.16 325.21 225.35 318.25 228.66 311.36 232.3 304.54 236.2 297.83 240.09 291.25 244.14 284.84 248.32 278.66 252.38 272.67 256.51 266.97 260.69 261.64 266.75 254.23 278.89 242.19 285.05 237.75 291.16 234.34 304.01 230.7 310.84 230.33 317.84 230.51 332.83 232.21 340.83 233.25 349.03 233.71 366.33 233.02 375.39 231.6 381.48 229.96 387.72 228.05 394.09 225.92" stroke-dasharray="84 84" transform="rotate(15.94736842105263, 400, 400)" opacity="0.66"></path><path d="M396.63 237.22C402.66 234.73 408.71 232.25 414.75 229.86 420.8 227.32 426.86 225.05 432.91 223.13 445.05 219.73 457.22 218.64 469.26 220.1 481.34 223.21 493.2 229.01 504.51 237.12 515.5 246.56 525.48 257.67 533.96 269.86 541.49 282.49 547.12 295.62 550.69 308.87 553.54 321.99 555.01 335.07 555.69 347.98 557.46 360.67 559.81 373.32 563.11 385.9 565.52 392.17 568.11 398.44 570.79 404.72 573.72 410.99 576.5 417.28 578.97 423.57 581.27 429.86 582.93 436 583.86 441.97 584.29 447.93 583.87 453.7 582.62 459.25 578.56 470.25 571.78 480.19 563.27 488.77 554.62 496.94 545.75 503.48 537.2 508.21 529.9 512.47 523.03 515.05 516.37 516.16 510.47 517.59 504.1 518.48 497.01 519.52 489.92 522.48 481.77 526.83 472.6 533.05 463.24 542.07 452.92 552.92 441.82 564.89 436.24 571.29 430.49 577.58 424.6 583.58 418.7 589.33 412.66 594.43 406.5 598.7 400.34 602.25 394.2 604.61 388.11 605.75 382.02 605.96 375.97 604.93 369.97 602.71 357.95 595.77 346.1 585.14 334.52 572.09 322.9 558.18 311.55 543.8 300.69 529.89 289.95 517.3 279.91 505.89 270.89 495.7 262.38 487.12 255.18 479.27 249.51 471.77 244.44 465.14 240.76 458.15 238.36 450.49 235.8 443.06 233.83 434.58 232.22 424.96 230.49 417.6 226.96 401.35 225.33 392.49 224.22 386.48 223.42 380.33 222.97 374.08 222.63 367.83 222.74 361.49 223.33 355.08 225.18 342.35 229.07 329.49 234.72 316.83 240.95 304.51 248.37 292.69 256.52 281.81 264.4 271.67 272.61 262.87 281.02 255.84 288.87 249.85 297.03 245.79 305.55 243.77 313.77 242.41 322.59 242.57 332.04 243.86 341.42 244.49 351.54 245.16 362.33 245.41 367.72 244.78 373.28 243.92 379 242.81 384.71 241.16 390.59 239.28 396.62 237.22" stroke-dasharray="28 18" transform="rotate(21.263157894736842, 400, 400)" opacity="0.34"></path><path d="M399.81 248.51C411.19 243.46 422.67 238.77 434.12 235.02 445.6 231.55 457.04 230.09 468.27 230.87 479.43 233.04 490.21 237.66 500.27 244.44 509.92 252.5 518.47 262.26 525.53 273.22 531.79 284.76 536.38 296.97 539.28 309.47 541.82 322.04 543.37 334.66 544.44 347.15 546.65 359.55 549.41 371.85 552.92 383.96 558.03 396.03 563.33 407.99 567.92 419.72 571.91 431.45 573.28 442.35 571.76 452.27 568.39 462.08 562.48 470.73 554.79 478.03 546.73 485.04 538.13 490.57 529.57 494.54 521.94 498.33 514.63 500.82 507.55 502.28 501.27 504.32 494.75 506.18 487.79 508.42 481.01 512.49 473.42 517.88 464.99 524.85 456.48 534.13 447.09 544.8 436.92 556.19 426.7 568.17 415.78 579.03 404.28 587.4 392.79 593.29 381.29 594.81 369.92 592.03 358.56 586.25 347.32 577.04 336.35 565.41 325.41 552.74 314.81 539.25 304.77 525.82 294.95 513.22 285.89 501.42 277.89 490.6 270.38 481.08 264.11 472.29 259.24 463.97 254.81 456.49 251.56 448.93 249.35 441.01 246.89 433.39 244.9 425.02 243.21 415.8 240.64 406.61 238.27 396.43 236.38 385.3 234.21 374.16 233.38 362.62 234.15 350.95 235.66 339.38 239.06 327.84 244.13 316.64 249.83 305.78 256.75 295.55 264.51 286.34 272.17 277.79 280.27 270.58 288.61 265.02 296.51 260.28 304.66 257.24 313.09 255.92 321.19 254.98 329.76 255.24 338.82 256.37 347.76 256.71 357.32 257 367.49 256.87 377.63 254.9 388.41 252.06 399.8 248.52" stroke-dasharray="77 7" transform="rotate(26.57894736842105, 400, 400)" opacity="0.44"></path><path d="M403.02 259.81C413.72 255.02 424.47 250.59 435.15 246.97 445.82 243.5 456.36 241.76 466.57 241.96 476.65 243.29 486.21 246.82 494.95 252.34 503.26 259.02 510.46 267.38 516.28 276.98 521.49 287.25 525.31 298.33 527.8 309.83 530.22 321.53 531.97 333.41 533.46 345.23 536.06 357.06 539.14 368.78 542.77 380.25 547.71 391.72 552.66 402.96 556.87 413.81 560.57 424.67 561.96 434.58 560.81 443.43 558.09 452.2 553.01 459.81 546.18 466.15 538.81 472.33 530.68 477.21 522.33 480.84 514.6 484.5 507.02 487.21 499.64 489.27 492.97 492.06 486.22 494.92 479.22 498.28 472.52 503.33 465.24 509.53 457.31 517.03 449.4 526.39 440.74 536.74 431.38 547.47 421.99 558.53 411.92 568.45 401.26 576.11 390.59 581.62 379.88 583.3 369.26 581.21 358.67 576.5 348.2 568.63 338.02 558.43 327.94 547.08 318.25 534.68 309.17 521.99 300.36 509.73 292.35 497.91 285.38 486.79 278.84 476.67 273.43 467.18 269.26 458.21 265.35 449.98 262.43 441.86 260.36 433.63 257.95 425.72 255.92 417.35 254.17 408.41 251.61 399.53 249.28 389.94 247.43 379.63 245.33 369.32 244.46 358.82 245.02 348.35 246.22 337.98 249.14 327.79 253.63 318.08 258.74 308.67 265.1 300 272.35 292.38 279.66 285.31 287.5 279.51 295.66 275.21 303.51 271.5 311.62 269.25 319.96 268.42 327.99 267.73 336.38 267.96 345.16 268.83 353.78 268.85 362.91 268.76 372.56 268.27 382.15 266.12 392.32 263.25 403.02 259.81" stroke-dasharray="95 9" transform="rotate(31.89473684210526, 400, 400)" opacity="0.25"></path><path d="M405.66 271.1C415.65 266.6 425.6 262.44 435.39 258.99 445.15 255.58 454.68 253.63 463.76 253.36 472.69 253.97 481 256.52 488.45 260.87 495.52 266.23 501.55 273.19 506.35 281.39 510.77 290.27 514.07 300.05 516.37 310.36 518.82 320.96 520.85 331.86 522.75 342.77 525.68 353.78 528.99 364.71 532.67 375.38 537.39 386.08 541.98 396.51 545.82 406.48 549.22 416.44 550.61 425.44 549.79 433.4 547.64 441.31 543.35 448.13 537.38 453.81 530.8 459.45 523.29 464.02 515.35 467.62 507.76 471.42 500.13 474.58 492.6 477.37 485.66 480.96 478.69 484.78 471.6 489.13 464.84 494.95 457.7 501.75 450.11 509.55 442.6 518.8 434.49 528.7 425.8 538.7 417.11 548.85 407.81 557.85 397.99 564.81 388.16 569.94 378.28 571.74 368.52 570.25 358.79 566.51 349.22 559.92 339.98 551.11 330.86 541.13 322.19 529.95 314.16 518.23 306.4 506.61 299.43 495.11 293.43 484.05 287.78 473.68 283.12 463.81 279.51 454.42 276.03 445.64 273.35 437.08 271.36 428.58 268.97 420.4 266.9 412 265.08 403.3 262.56 394.68 260.28 385.59 258.49 376.08 256.46 366.56 255.56 357.07 255.94 347.78 256.85 338.57 259.32 329.71 263.22 321.43 267.73 313.41 273.46 306.18 280.12 299.98 286.94 294.2 294.39 289.6 302.24 286.31 309.9 283.41 317.86 281.72 326.03 281.18 333.96 280.56 342.19 280.66 350.69 281.2 359.06 280.87 367.83 280.41 376.98 279.59 386.09 277.3 395.66 274.42 405.66 271.1" stroke-dasharray="37 72" transform="rotate(37.21052631578947, 400, 400)" opacity="0.80"></path><path d="M407.21 282.4C416.47 278.19 425.58 274.31 434.42 271.06 443.22 267.76 451.69 265.7 459.63 265.05 467.42 265.08 474.56 266.78 480.85 270.06 486.86 274.21 491.94 279.82 496 286.63 499.86 294.09 502.87 302.47 505.16 311.46 507.74 320.8 510.05 330.51 512.32 340.35 515.5 350.32 518.95 360.28 522.61 370.04 527.07 379.84 531.29 389.37 534.77 398.46 537.88 407.56 539.24 415.74 538.69 422.97 537.05 430.17 533.5 436.43 528.38 441.73 522.62 447.08 515.86 451.6 508.5 455.4 501.27 459.51 493.83 463.23 486.36 466.79 479.32 471.14 472.24 475.78 465.11 480.94 458.28 487.32 451.21 494.48 443.85 502.36 436.61 511.32 428.92 520.66 420.81 529.89 412.7 539.11 404.12 547.23 395.1 553.51 386.08 558.26 377.08 560.13 368.23 559.16 359.42 556.29 350.82 550.87 342.59 543.41 334.49 534.81 326.87 524.94 319.89 514.35 313.15 503.63 307.15 492.76 302.03 482.09 297.14 471.84 293.11 461.92 289.95 452.41 286.79 443.35 284.27 434.54 282.31 425.93 279.93 417.58 277.82 409.2 275.95 400.75 273.47 392.37 271.26 383.78 269.54 375.01 267.61 366.23 266.69 357.7 266.91 349.53 267.56 341.41 269.6 333.78 272.95 326.81 276.83 320.03 281.89 314.05 287.89 309.06 294.13 304.35 301.04 300.7 308.42 298.17 315.75 295.84 323.41 294.49 331.29 294.05 339.02 293.39 347.01 293.26 355.21 293.43 363.3 292.76 371.69 291.94 380.36 290.83 388.99 288.43 397.96 285.58 407.21 282.4" stroke-dasharray="2 57" transform="rotate(42.526315789473685, 400, 400)" opacity="0.58"></path><path d="M407.39 293.7C415.88 289.8 424.12 286.21 432 283.19 439.85 280.04 447.28 277.94 454.16 277.03 460.91 276.6 467.02 277.59 472.36 279.96 477.52 283.01 481.89 287.38 485.45 292.87 488.98 298.92 491.88 305.9 494.26 313.53 497.01 321.5 499.61 329.93 502.18 338.57 505.52 347.36 509.02 356.23 512.58 364.98 516.74 373.77 520.59 382.37 523.72 390.61 526.54 398.85 527.85 406.3 527.53 412.94 526.32 419.59 523.45 425.46 519.14 430.59 514.22 435.81 508.27 440.44 501.64 444.59 494.95 449.07 487.92 453.37 480.73 457.63 473.82 462.62 466.81 467.91 459.75 473.65 452.94 480.36 445.97 487.65 438.83 495.41 431.81 503.94 424.49 512.62 416.89 521.02 409.31 529.32 401.37 536.58 393.15 542.22 384.92 546.58 376.79 548.48 368.87 547.94 360.98 545.84 353.37 541.49 346.17 535.3 339.06 528.06 332.45 519.54 326.46 510.19 320.64 500.56 315.5 490.58 311.12 480.6 306.87 470.8 303.33 461.17 300.5 451.84 297.57 442.82 295.16 434.03 293.18 425.49 290.8 417.15 288.66 408.91 286.77 400.76 284.36 392.68 282.24 384.59 280.59 376.53 278.76 368.47 277.84 360.81 277.93 353.66 278.36 346.54 280.01 339.99 282.82 334.14 286.1 328.42 290.48 323.49 295.76 319.45 301.32 315.58 307.59 312.62 314.37 310.61 321.19 308.62 328.39 307.43 335.85 306.94 343.23 306.14 350.85 305.71 358.65 305.49 366.38 304.49 374.34 303.35 382.47 301.98 390.58 299.52 398.91 296.72 407.39 293.7" stroke-dasharray="13 26" transform="rotate(47.84210526315789, 400, 400)" opacity="0.75"></path><path d="M406.17 304.99C413.86 301.41 421.24 298.13 428.21 295.35 435.15 292.41 441.64 290.35 447.58 289.27 456.07 288.72 469.78 294.28 475 300.21 478.35 304.96 481.25 310.58 483.78 316.88 486.71 323.48 489.52 330.58 492.31 337.98 495.72 345.53 499.18 353.24 502.58 360.94 506.41 368.68 509.89 376.33 512.67 383.74 515.21 391.15 516.45 397.94 516.31 404.11 515.47 410.3 513.19 415.91 509.65 420.98 505.55 426.18 500.44 430.98 494.62 435.49 488.64 440.34 482.2 445.12 475.51 449.96 468.94 455.4 462.21 461.12 455.41 467.18 448.77 473.98 442.02 481.17 435.16 488.63 428.4 496.59 421.46 504.53 414.35 512.09 407.27 519.48 399.97 525.92 392.5 530.92 385.02 534.89 377.74 536.77 370.73 536.6 363.74 535.15 357.07 531.78 350.82 526.76 344.65 520.81 338.95 513.63 333.83 505.6 328.81 497.18 324.38 488.29 320.6 479.23 316.85 470.19 313.67 461.16 311.06 452.32 308.3 443.64 305.94 435.14 303.95 426.9 301.58 418.79 299.43 410.85 297.54 403.11 295.22 395.42 293.2 387.86 291.64 380.48 289.93 373.11 289.03 366.26 289.01 359.99 289.89 350.93 297.41 336.25 303.8 330.86 308.63 327.59 314.17 325.09 320.24 323.36 326.41 321.55 333 320.36 339.88 319.71 346.75 318.68 353.86 317.93 361.13 317.34 368.37 316.03 375.79 314.62 383.31 313.04 390.83 310.56 398.47 307.84 406.17 304.99" stroke-dasharray="106 77" transform="rotate(53.1578947368421, 400, 400)" opacity="0.19"></path><path d="M403.76 316.29C410.65 313.03 417.19 310.07 423.32 307.56 432.26 303.88 447.7 300.78 454.09 301.78 459.96 304.3 469.63 314.5 473.79 321.74 476.84 327.03 479.8 332.85 482.69 339.03 486.07 345.34 489.4 351.89 492.58 358.53 496.07 365.22 499.16 371.93 501.62 378.54 504.45 388.25 503.62 405.59 499.89 413.35 496.56 418.53 492.3 423.49 487.33 428.29 482.15 433.39 476.45 438.51 470.42 443.72 464.41 449.39 458.17 455.3 451.81 461.44 445.55 468.1 439.16 474.98 432.7 481.96 426.32 489.25 419.82 496.39 413.24 503.09 406.68 509.59 400.01 515.22 393.28 519.63 386.54 523.2 380.06 525.03 373.89 525.15 367.74 524.25 361.92 521.72 356.53 517.77 351.17 513.03 346.26 507.15 341.87 500.43 337.5 493.3 333.64 485.62 330.3 477.66 326.94 469.6 324.03 461.43 321.56 453.33 318.92 445.29 316.6 437.35 314.59 429.63 312.24 421.99 310.12 414.53 308.26 407.32 306.05 400.14 304.15 393.16 302.69 386.47 300.67 376.71 300.71 360.2 303.06 353.54 306.77 347.56 318.57 338.94 326.22 336.19 331.64 334.42 337.5 333.12 343.66 332.22 349.86 330.95 356.31 329.89 362.93 328.94 369.54 327.37 376.31 325.74 383.14 324.02 389.97 321.54 396.87 318.94 403.76 316.29" stroke-dasharray="96 70" transform="rotate(58.473684210526315, 400, 400)" opacity="0.64"></path><path d="M400.64 327.59C412.81 321.32 423.62 316.72 432.72 314.42 441.81 312.46 449.35 313.85 455.32 318.35 461.95 323.84 467.9 332.05 473.31 342.02 480.1 352.4 486.27 363.87 490.57 375.57 494.26 387.28 493.94 398.1 489.86 407.97 484.25 418.28 475.61 428.5 465.22 438.81 454.61 450.47 443.02 462.89 431.16 475.35 419.45 488.46 407.36 500.16 395.33 508.33 383.31 513.93 372.42 513.67 363.07 508.33 353.76 500.42 346.01 488.89 340.06 475.56 333.8 461.61 328.81 447.07 325.07 433.07 320.24 419.19 316.26 405.89 313.74 393.85 310.82 381.81 310.72 372.05 313.46 364.67 317.12 357.21 323.74 351.98 332.51 348.82 341.85 344.95 352.77 342.25 364.42 340.25 376.18 336.19 388.47 331.88 400.64 327.59" stroke-dasharray="102 36" transform="rotate(63.78947368421052, 400, 400)" opacity="0.44"></path><path d="M397.4 338.88C407.97 333.38 417.42 329.37 425.48 327.26 433.62 325.22 440.62 325.86 446.47 329.08 452.92 332.92 458.83 339.14 464.13 347.11 470.37 355.37 475.83 364.9 479.51 375.14 482.75 385.37 482.69 395.35 479.57 404.9 475.28 414.8 468.32 424.87 459.66 435.05 450.64 446.11 440.53 457.59 430.06 468.74 419.63 480.12 408.87 490.1 398.28 497.03 387.69 502.03 378.2 502.3 370.1 498.43 361.95 492.56 355.09 483.51 349.66 472.64 343.87 461.09 339.09 448.69 335.37 436.51 330.81 424.31 327.1 412.53 324.79 401.87 322.16 391.21 321.93 382.58 324.05 376 326.81 369.27 332.08 364.32 339.26 361 346.94 356.95 356.12 353.79 366.09 351.24 376.18 347.06 386.83 342.84 397.4 338.88" stroke-dasharray="107 3" transform="rotate(69.10526315789474, 400, 400)" opacity="0.95"></path><path d="M394.65 350.18C403.66 345.45 411.85 342.05 419.02 340.23 426.29 338.29 432.77 338.48 438.41 340.76 444.51 343.35 450.15 347.98 455.11 354.25 460.67 360.68 465.37 368.48 468.46 377.28 471.23 386.09 471.35 395.09 469.03 404.02 465.88 413.2 460.49 422.68 453.54 432.21 446.22 442.25 437.79 452.44 428.89 462.06 419.97 471.68 410.7 479.97 401.56 485.74 392.41 490.09 384.21 490.73 377.17 488.09 370.04 483.98 363.92 477.18 358.93 468.69 353.59 459.56 349.07 449.46 345.49 439.28 341.29 429.02 337.92 418.95 335.85 409.7 333.53 400.45 333.21 392.85 334.81 386.89 336.82 380.76 340.89 375.99 346.58 372.46 352.66 368.3 360.1 364.82 368.34 361.9 376.7 357.76 385.64 353.75 394.65 350.18" stroke-dasharray="55 105" transform="rotate(74.42105263157895, 400, 400)" opacity="0.64"></path><path d="M392.92 361.48C400.39 357.53 407.37 354.75 413.66 353.27 422.97 351.59 439.24 356.64 446.22 363.2 450.97 368.14 454.9 374.4 457.41 381.79 459.7 389.17 459.93 397.02 458.26 405 456.06 413.12 452.05 421.58 446.71 430.01 441.06 438.68 434.38 447.31 427.15 455.28 419.87 463.11 412.2 469.79 404.53 474.44 396.86 478.13 389.9 478.98 383.83 477.31 377.67 474.65 372.26 469.81 367.71 463.51 362.89 456.69 358.74 448.88 355.41 440.78 351.67 432.57 348.7 424.3 346.9 416.52 344.74 405.44 348.67 388.94 354.56 383.01 359.17 378.87 364.97 375.27 371.53 372.19 378.18 368.27 385.44 364.6 392.92 361.48" stroke-dasharray="66 68" transform="rotate(79.73684210526316, 400, 400)" opacity="0.68"></path><path d="M392.53 372.77C404.49 366.03 415.62 363.75 424.58 366.18 434.25 368.62 442.41 376.24 446.36 388.18 449.76 400.11 446.7 414.33 439.11 428.15 430.71 442.26 418.97 455.45 406.64 463.14 394.31 468.42 383.68 465.43 375.87 457 367.36 447.17 360.76 434.17 357.95 421.63 354.69 409.08 356.85 399.25 363.18 392.46 370.03 384.36 380.58 377.39 392.53 372.77" stroke-dasharray="107 37" transform="rotate(85.05263157894737, 400, 400)" opacity="0.22"></path><path d="M393.57 384.07C402.56 379.08 411.36 377.55 418.61 379.44 426.18 381.16 432.41 386.73 435.31 395.79 437.9 404.84 435.95 415.81 430.74 426.31 425.09 436.79 416.75 446.34 407.49 451.85 398.23 456.01 389.81 454.53 383.36 449.11 376.55 442.9 371.24 433.93 369 424.49 366.49 415.04 367.94 406.87 372.4 400.7 377.07 393.79 384.58 387.84 393.57 384.07" stroke-dasharray="89 11" transform="rotate(90.36842105263158, 400, 400)" opacity="0.10"></path><path d="M395.83 395.37C407.88 388.39 420.48 391.61 424.26 403.84 427.51 416.06 419.24 433.1 406.91 440.55 394.56 445.66 383.01 437.41 380.05 424.81 376.62 412.2 383.78 400.15 395.83 395.37" stroke-dasharray="81 12" transform="rotate(95.68421052631578, 400, 400)" opacity="0.22"></path></g></svg>