<svg xmlns="http://www.w3.org/2000/svg" version="1.1" xmlns:xlink="http://www.w3.org/1999/xlink" xmlns:svgjs="http://svgjs.dev/svgjs" viewBox="0 0 800 800"><defs><linearGradient x1="50%" y1="0%" x2="50%" y2="100%" id="nnneon-grad"><stop stop-color="#32ded4" stop-opacity="1" offset="0%"></stop><stop stop-color="hsl(331, 87%, 61%)" stop-opacity="1" offset="100%"></stop></linearGradient><filter id="nnneon-filter" x="-100%" y="-100%" width="400%" height="400%" filterUnits="objectBoundingBox" primitiveUnits="userSpaceOnUse" color-interpolation-filters="sRGB">
	<feGaussianBlur stdDeviation="12 13" x="0%" y="0%" width="100%" height="100%" in="SourceGraphic" edgeMode="none" result="blur"></feGaussianBlur></filter><filter id="nnneon-filter2" x="-100%" y="-100%" width="400%" height="400%" filterUnits="objectBoundingBox" primitiveUnits="userSpaceOnUse" color-interpolation-filters="sRGB">
	<feGaussianBlur stdDeviation="3 4" x="0%" y="0%" width="100%" height="100%" in="SourceGraphic" edgeMode="none" result="blur"></feGaussianBlur></filter></defs><g stroke-width="11.5" stroke="url(#nnneon-grad)" fill="none"><path d="M375.9053128798996 52.489127687032294C390.8151241540951 43.882494546853536 409.18493688106116 43.882494546853536 424.09474815525664 52.49153715879606L688.9053328803977 205.379748985157C703.8151441545932 213.98638212533575 713.0000505180763 229.89612418149488 713.0000505180763 247.11179993361617V552.8882235863381C713.0000505180763 570.1038993384594 703.8151441545932 586.0136413946185 688.9053328803977 594.6226840065609L424.09474815525664 747.510895832922C409.18493688106116 756.1175289731007 390.8151241540951 756.1175289731007 375.9053128798996 747.5084863611581L111.09472815475851 594.6202745347972C96.18491688056315 586.0136413946185 87.00001051708011 570.1038993384594 87.00001051708011 552.8882235863381V247.11179993361617C87.00001051708011 229.89612418149488 96.18491688056315 213.98638212533575 111.09472815475851 205.37733951339328L375.9053128798996 52.489127687032294Z " filter="url(#nnneon-filter)"></path><path d="M375.9053128798996 52.489127687032294C390.8151241540951 43.882494546853536 409.18493688106116 43.882494546853536 424.09474815525664 52.49153715879606L688.9053328803977 205.379748985157C703.8151441545932 213.98638212533575 713.0000505180763 229.89612418149488 713.0000505180763 247.11179993361617V552.8882235863381C713.0000505180763 570.1038993384594 703.8151441545932 586.0136413946185 688.9053328803977 594.6226840065609L424.09474815525664 747.510895832922C409.18493688106116 756.1175289731007 390.8151241540951 756.1175289731007 375.9053128798996 747.5084863611581L111.09472815475851 594.6202745347972C96.18491688056315 586.0136413946185 87.00001051708011 570.1038993384594 87.00001051708011 552.8882235863381V247.11179993361617C87.00001051708011 229.89612418149488 96.18491688056315 213.98638212533575 111.09472815475851 205.37733951339328L375.9053128798996 52.489127687032294Z " filter="url(#nnneon-filter2)" opacity="0.2"></path><path d="M375.9053128798996 52.489127687032294C390.8151241540951 43.882494546853536 409.18493688106116 43.882494546853536 424.09474815525664 52.49153715879606L688.9053328803977 205.379748985157C703.8151441545932 213.98638212533575 713.0000505180763 229.89612418149488 713.0000505180763 247.11179993361617V552.8882235863381C713.0000505180763 570.1038993384594 703.8151441545932 586.0136413946185 688.9053328803977 594.6226840065609L424.09474815525664 747.510895832922C409.18493688106116 756.1175289731007 390.8151241540951 756.1175289731007 375.9053128798996 747.5084863611581L111.09472815475851 594.6202745347972C96.18491688056315 586.0136413946185 87.00001051708011 570.1038993384594 87.00001051708011 552.8882235863381V247.11179993361617C87.00001051708011 229.89612418149488 96.18491688056315 213.98638212533575 111.09472815475851 205.37733951339328L375.9053128798996 52.489127687032294Z " filter="url(#nnneon-filter2)" opacity="0.2"></path><path d="M375.9053128798996 52.489127687032294C390.8151241540951 43.882494546853536 409.18493688106116 43.882494546853536 424.09474815525664 52.49153715879606L688.9053328803977 205.379748985157C703.8151441545932 213.98638212533575 713.0000505180763 229.89612418149488 713.0000505180763 247.11179993361617V552.8882235863381C713.0000505180763 570.1038993384594 703.8151441545932 586.0136413946185 688.9053328803977 594.6226840065609L424.09474815525664 747.510895832922C409.18493688106116 756.1175289731007 390.8151241540951 756.1175289731007 375.9053128798996 747.5084863611581L111.09472815475851 594.6202745347972C96.18491688056315 586.0136413946185 87.00001051708011 570.1038993384594 87.00001051708011 552.8882235863381V247.11179993361617C87.00001051708011 229.89612418149488 96.18491688056315 213.98638212533575 111.09472815475851 205.37733951339328L375.9053128798996 52.489127687032294Z "></path></g></svg>