<svg id="visual" viewBox="0 0 900 600" width="900" height="600" xmlns="http://www.w3.org/2000/svg" xmlns:xlink="http://www.w3.org/1999/xlink" version="1.1"><path d="M0 203L21.5 202.5C43 202 86 201 128.8 219.8C171.7 238.7 214.3 277.3 257.2 301C300 324.7 343 333.3 385.8 322.5C428.7 311.7 471.3 281.3 514.2 291.2C557 301 600 351 642.8 357.2C685.7 363.3 728.3 325.7 771.2 313.8C814 302 857 316 878.5 323L900 330L900 0L878.5 0C857 0 814 0 771.2 0C728.3 0 685.7 0 642.8 0C600 0 557 0 514.2 0C471.3 0 428.7 0 385.8 0C343 0 300 0 257.2 0C214.3 0 171.7 0 128.8 0C86 0 43 0 21.5 0L0 0Z" fill="#32ded4" stroke-linecap="round" stroke-linejoin="miter"></path></svg>